<?xml version="1.0" encoding="UTF-8" standalone="no"?>
<!-- Created with Inkscape (http://www.inkscape.org/) -->

<svg
   xmlns:dc="http://purl.org/dc/elements/1.1/"
   xmlns:cc="http://creativecommons.org/ns#"
   xmlns:rdf="http://www.w3.org/1999/02/22-rdf-syntax-ns#"
   xmlns:svg="http://www.w3.org/2000/svg"
   xmlns="http://www.w3.org/2000/svg"
   xmlns:sodipodi="http://sodipodi.sourceforge.net/DTD/sodipodi-0.dtd"
   xmlns:inkscape="http://www.inkscape.org/namespaces/inkscape"
   width="210mm"
   height="297mm"
   id="svg2"
   version="1.1"
   inkscape:version="0.48.4 r9939"
   sodipodi:docname="Novo documento 1">
  <defs
     id="defs4" />
  <sodipodi:namedview
     id="base"
     pagecolor="#ffffff"
     bordercolor="#666666"
     borderopacity="1.0"
     inkscape:pageopacity="0.0"
     inkscape:pageshadow="2"
     inkscape:zoom="2.9561538"
     inkscape:cx="182.25679"
     inkscape:cy="602.25038"
     inkscape:document-units="px"
     inkscape:current-layer="layer1"
     showgrid="false"
     inkscape:window-width="1280"
     inkscape:window-height="745"
     inkscape:window-x="0"
     inkscape:window-y="0"
     inkscape:window-maximized="1" />
  <metadata
     id="metadata7">
    <rdf:RDF>
      <cc:Work
         rdf:about="">
        <dc:format>image/svg+xml</dc:format>
        <dc:type
           rdf:resource="http://purl.org/dc/dcmitype/StillImage" />
        <dc:title></dc:title>
      </cc:Work>
    </rdf:RDF>
  </metadata>
  <g
     inkscape:label="Camada 1"
     inkscape:groupmode="layer"
     id="layer1">
    <path
       style="fill:#d45500;fill-opacity:1;fill-rule:nonzero;stroke:#ccc9c9;stroke-width:0.01351378000000000;stroke-linecap:round;stroke-linejoin:miter;stroke-miterlimit:4;stroke-opacity:1"
       d="m 144.30195,433.06726 -8.89572,10.70466 -4.3047,4.9385 0.0163,0.0383 -0.88177,8.38066 -1.24943,-0.37272 -0.70281,6.65411 1.30475,0.39464 0.40997,-3.88064 1.77329,0.53166 -0.40997,3.88065 1.42839,0.42753 0.70281,-6.65959 -1.38609,-0.41656 0.73209,-6.94461 2.37197,-2.72412 3.49453,15.90626 0.3937,0.0164 0,-2.96529 1.55203,0 0,3.01462 0.7386,0.0274 0,-3.04203 1.55203,0 0,3.09684 0.73861,0.0274 0,-3.12424 1.55202,0 0,3.17906 0.73861,0.0274 0,-3.20646 1.55203,0 0,3.25578 0.73859,0.0274 0,-3.2832 1.55205,0 0,3.33802 0.35466,0.011 3.16913,-16.00493 2.3004,2.63643 0.73209,6.94459 -1.38609,0.41658 0.70281,6.65958 1.42839,-0.42753 -0.40997,-3.88064 1.77003,-0.53168 0.40997,3.88066 1.30801,-0.38917 -0.70281,-6.65959 -1.24943,0.37273 -0.88502,-8.38067 0.0163,-0.0383 -4.20384,-4.82339 -8.86645,-11.03354 z"
       id="path2985"
       inkscape:connector-curvature="0"
       inkscape:export-filename="/home/alex/test/assets/enemy5.png"
       inkscape:export-xdpi="90"
       inkscape:export-ydpi="90" />
    <path
       style="opacity:0.96282528;fill:#ffffff;fill-opacity:1;fill-rule:nonzero;stroke:#ccc9c9;stroke-width:0.00957198;stroke-linecap:round;stroke-linejoin:miter;stroke-miterlimit:4;stroke-opacity:1"
       d="m 140.97905,447.44962 1.58929,2.13598 -0.0352,6.1757 -1.55408,0 z"
       id="rect2987"
       inkscape:connector-curvature="0"
       sodipodi:nodetypes="ccccc"
       inkscape:export-filename="/home/alex/test/assets/enemy.png"
       inkscape:export-xdpi="90"
       inkscape:export-ydpi="90" />
    <path
       sodipodi:nodetypes="ccccc"
       inkscape:connector-curvature="0"
       id="path3009"
       d="m 147.83551,447.44962 -1.5893,2.13598 0.0352,6.1757 1.55408,0 z"
       style="opacity:0.96282528;fill:#ffffff;fill-opacity:1;fill-rule:nonzero;stroke:#ccc9c9;stroke-width:0.00957198;stroke-linecap:round;stroke-linejoin:miter;stroke-miterlimit:4;stroke-opacity:1"
       inkscape:export-filename="/home/alex/test/assets/enemy.png"
       inkscape:export-xdpi="90"
       inkscape:export-ydpi="90" />
  </g>
</svg>
